<?xml version="1.0" encoding="UTF-8" standalone="no"?>
<svg width="800" height="600" xmlns="http://www.w3.org/2000/svg">
    <!-- Background -->
    <rect width="800" height="600" fill="#f9f9f9" />
    
    <!-- Title -->
    <text x="400" y="40" font-family="Arial" font-size="24" font-weight="bold" text-anchor="middle" fill="#333">Standard Governance Process for Long-term High Loss Areas</text>
    
    <!-- Four Main Phases - Horizontal Process -->
    <!-- Phase 1: Cause Confirmation -->
    <rect x="70" y="100" width="150" height="80" rx="10" ry="10" fill="#bbdefb" stroke="#1976d2" stroke-width="2" />
    <text x="145" y="140" font-family="Arial" font-size="18" font-weight="bold" text-anchor="middle" fill="#1976d2">Cause Confirmation</text>
    <text x="145" y="165" font-family="Arial" font-size="12" text-anchor="middle">Step 1</text>
    
    <!-- Phase 2: Plan Development -->
    <rect x="250" y="100" width="150" height="80" rx="10" ry="10" fill="#c8e6c9" stroke="#4caf50" stroke-width="2" />
    <text x="325" y="140" font-family="Arial" font-size="18" font-weight="bold" text-anchor="middle" fill="#4caf50">Plan Development</text>
    <text x="325" y="165" font-family="Arial" font-size="12" text-anchor="middle">Step 2</text>
    
    <!-- Phase 3: Implementation Tracking -->
    <rect x="430" y="100" width="150" height="80" rx="10" ry="10" fill="#fff9c4" stroke="#fbc02d" stroke-width="2" />
    <text x="505" y="140" font-family="Arial" font-size="18" font-weight="bold" text-anchor="middle" fill="#fbc02d">Implementation Tracking</text>
    <text x="505" y="165" font-family="Arial" font-size="12" text-anchor="middle">Step 3</text>
    
    <!-- Phase 4: Effect Evaluation -->
    <rect x="610" y="100" width="150" height="80" rx="10" ry="10" fill="#ffccbc" stroke="#ff5722" stroke-width="2" />
    <text x="685" y="140" font-family="Arial" font-size="18" font-weight="bold" text-anchor="middle" fill="#ff5722">Effect Evaluation</text>
    <text x="685" y="165" font-family="Arial" font-size="12" text-anchor="middle">Step 4</text>
    
    <!-- Connection Arrows -->
    <line x1="220" y1="140" x2="250" y2="140" stroke="#666" stroke-width="2" />
    <polygon points="250,140 240,135 240,145" fill="#666" />
    
    <line x1="400" y1="140" x2="430" y2="140" stroke="#666" stroke-width="2" />
    <polygon points="430,140 420,135 420,145" fill="#666" />
    
    <line x1="580" y1="140" x2="610" y2="140" stroke="#666" stroke-width="2" />
    <polygon points="610,140 600,135 600,145" fill="#666" />
    
    <!-- Phase 1 Detailed Content -->
    <rect x="70" y="220" width="150" height="280" rx="10" ry="10" fill="#e3f2fd" stroke="#1976d2" stroke-width="1" />
    
    <text x="145" y="250" font-family="Arial" font-size="14" font-weight="bold" text-anchor="middle" fill="#1976d2">Field Verification</text>
    
    <rect x="85" y="270" width="120" height="40" rx="5" ry="5" fill="#fff" stroke="#1976d2" stroke-width="1" />
    <text x="145" y="295" font-family="Arial" font-size="12" text-anchor="middle">CT Ratio Verification</text>
    
    <rect x="85" y="330" width="120" height="40" rx="5" ry="5" fill="#fff" stroke="#1976d2" stroke-width="1" />
    <text x="145" y="355" font-family="Arial" font-size="12" text-anchor="middle">User-Transformer Verification</text>
    
    <rect x="85" y="390" width="120" height="40" rx="5" ry="5" fill="#fff" stroke="#1976d2" stroke-width="1" />
    <text x="145" y="415" font-family="Arial" font-size="12" text-anchor="middle">Electricity Theft Investigation</text>
    
    <rect x="85" y="450" width="120" height="40" rx="5" ry="5" fill="#fff" stroke="#1976d2" stroke-width="1" />
    <text x="145" y="475" font-family="Arial" font-size="12" text-anchor="middle">Confirmation Report</text>
    
    <!-- Phase 2 Detailed Content -->
    <rect x="250" y="220" width="150" height="280" rx="10" ry="10" fill="#e8f5e9" stroke="#4caf50" stroke-width="1" />
    
    <text x="325" y="250" font-family="Arial" font-size="14" font-weight="bold" text-anchor="middle" fill="#4caf50">Targeted Solutions</text>
    
    <rect x="265" y="270" width="120" height="40" rx="5" ry="5" fill="#fff" stroke="#4caf50" stroke-width="1" />
    <text x="325" y="295" font-family="Arial" font-size="12" text-anchor="middle">Metering Device Correction</text>
    
    <rect x="265" y="330" width="120" height="40" rx="5" ry="5" fill="#fff" stroke="#4caf50" stroke-width="1" />
    <text x="325" y="355" font-family="Arial" font-size="12" text-anchor="middle">Archival Data Amendment</text>
    
    <rect x="265" y="390" width="120" height="40" rx="5" ry="5" fill="#fff" stroke="#4caf50" stroke-width="1" />
    <text x="325" y="415" font-family="Arial" font-size="12" text-anchor="middle">Theft Case Processing</text>
    
    <rect x="265" y="450" width="120" height="40" rx="5" ry="5" fill="#fff" stroke="#4caf50" stroke-width="1" />
    <text x="325" y="475" font-family="Arial" font-size="12" text-anchor="middle">Implementation Planning</text>
    
    <!-- Phase 3 Detailed Content -->
    <rect x="430" y="220" width="150" height="280" rx="10" ry="10" fill="#fffde7" stroke="#fbc02d" stroke-width="1" />
    
    <text x="505" y="250" font-family="Arial" font-size="14" font-weight="bold" text-anchor="middle" fill="#fbc02d">Execution Records</text>
    
    <rect x="445" y="270" width="120" height="40" rx="5" ry="5" fill="#fff" stroke="#fbc02d" stroke-width="1" />
    <text x="505" y="295" font-family="Arial" font-size="12" text-anchor="middle">Parameter Change Records</text>
    
    <rect x="445" y="330" width="120" height="40" rx="5" ry="5" fill="#fff" stroke="#fbc02d" stroke-width="1" />
    <text x="505" y="355" font-family="Arial" font-size="12" text-anchor="middle">Site Photo Documentation</text>
    
    <rect x="445" y="390" width="120" height="40" rx="5" ry="5" fill="#fff" stroke="#fbc02d" stroke-width="1" />
    <text x="505" y="415" font-family="Arial" font-size="12" text-anchor="middle">Governance Process Records</text>
    
    <rect x="445" y="450" width="120" height="40" rx="5" ry="5" fill="#fff" stroke="#fbc02d" stroke-width="1" />
    <text x="505" y="475" font-family="Arial" font-size="12" text-anchor="middle">Personnel Signatures</text>
    
    <!-- Phase 4 Detailed Content -->
    <rect x="610" y="220" width="150" height="280" rx="10" ry="10" fill="#fff3e0" stroke="#ff5722" stroke-width="1" />
    
    <text x="685" y="250" font-family="Arial" font-size="14" font-weight="bold" text-anchor="middle" fill="#ff5722">Effect Assessment</text>
    
    <rect x="625" y="270" width="120" height="40" rx="5" ry="5" fill="#fff" stroke="#ff5722" stroke-width="1" />
    <text x="685" y="295" font-family="Arial" font-size="12" text-anchor="middle">Three-Month Monitoring</text>
    
    <rect x="625" y="330" width="120" height="40" rx="5" ry="5" fill="#fff" stroke="#ff5722" stroke-width="1" />
    <text x="685" y="355" font-family="Arial" font-size="12" text-anchor="middle">Before-After Comparison</text>
    
    <rect x="625" y="390" width="120" height="40" rx="5" ry="5" fill="#fff" stroke="#ff5722" stroke-width="1" />
    <text x="685" y="415" font-family="Arial" font-size="12" text-anchor="middle">Economic Benefit Calculation</text>
    
    <rect x="625" y="450" width="120" height="40" rx="5" ry="5" fill="#fff" stroke="#ff5722" stroke-width="1" />
    <text x="685" y="475" font-family="Arial" font-size="12" text-anchor="middle">Experience Sharing</text>
    
    <!-- Self-Cycling Feedback Line -->
    <path d="M 685 520 C 685 540 700 550 750 550 C 800 550 800 50 750 50 C 700 50 145 50 145 100" fill="none" stroke="#9c27b0" stroke-width="2" stroke-dasharray="5,3" />
    <polygon points="145,100 140,90 150,90" fill="#9c27b0" />
    <text x="400" y="580" font-family="Arial" font-size="14" font-style="italic" text-anchor="middle" fill="#9c27b0">Experience Feedback and Continuous Improvement</text>
</svg> 