<?xml version="1.0" encoding="UTF-8"?>
<svg width="800" height="500" xmlns="http://www.w3.org/2000/svg">
  <!-- Background -->
  <rect width="800" height="500" fill="#f8f9fa" rx="10" ry="10" />
  
  <!-- Title -->
  <text x="400" y="40" font-family="Arial, sans-serif" font-size="22" text-anchor="middle" fill="#333" font-weight="bold">Big Data Line Loss Diagnostic System Technical Architecture</text>
  
  <!-- Architecture Layers -->
  <g transform="translate(80, 80)">
    <!-- Data Source Layer -->
    <rect x="0" y="0" width="640" height="70" rx="5" ry="5" fill="#f0f0f0" stroke="#ddd" stroke-width="1" />
    <text x="320" y="25" font-family="Arial, sans-serif" font-size="16" text-anchor="middle" fill="#333" font-weight="bold">Data Source Layer</text>
    
    <rect x="20" y="35" width="100" height="25" rx="3" ry="3" fill="#e9ecef" stroke="#ddd" />
    <text x="70" y="52" font-family="Arial, sans-serif" font-size="12" text-anchor="middle" fill="#333">Smart Meter System</text>
    
    <rect x="130" y="35" width="100" height="25" rx="3" ry="3" fill="#e9ecef" stroke="#ddd" />
    <text x="180" y="52" font-family="Arial, sans-serif" font-size="12" text-anchor="middle" fill="#333">Distribution Automation</text>
    
    <rect x="240" y="35" width="80" height="25" rx="3" ry="3" fill="#e9ecef" stroke="#ddd" />
    <text x="280" y="52" font-family="Arial, sans-serif" font-size="12" text-anchor="middle" fill="#333">GIS System</text>
    
    <rect x="330" y="35" width="80" height="25" rx="3" ry="3" fill="#e9ecef" stroke="#ddd" />
    <text x="370" y="52" font-family="Arial, sans-serif" font-size="12" text-anchor="middle" fill="#333">ERP System</text>
    
    <rect x="420" y="35" width="100" height="25" rx="3" ry="3" fill="#e9ecef" stroke="#ddd" />
    <text x="470" y="52" font-family="Arial, sans-serif" font-size="12" text-anchor="middle" fill="#333">Marketing System</text>
    
    <rect x="530" y="35" width="90" height="25" rx="3" ry="3" fill="#e9ecef" stroke="#ddd" />
    <text x="575" y="52" font-family="Arial, sans-serif" font-size="12" text-anchor="middle" fill="#333">Other Sources</text>
    
    <!-- Data Layer -->
    <rect x="0" y="80" width="640" height="70" rx="5" ry="5" fill="#d1ecf1" stroke="#309C9F" stroke-width="1" />
    <text x="320" y="105" font-family="Arial, sans-serif" font-size="16" text-anchor="middle" fill="#333" font-weight="bold">Data Layer</text>
    
    <rect x="20" y="115" width="140" height="25" rx="3" ry="3" fill="#309C9F" opacity="0.2" stroke="#309C9F" />
    <text x="90" y="132" font-family="Arial, sans-serif" font-size="12" text-anchor="middle" fill="#333">Data Collection & ETL</text>
    
    <rect x="170" y="115" width="140" height="25" rx="3" ry="3" fill="#309C9F" opacity="0.2" stroke="#309C9F" />
    <text x="240" y="132" font-family="Arial, sans-serif" font-size="12" text-anchor="middle" fill="#333">Multidimensional DW</text>
    
    <rect x="320" y="115" width="140" height="25" rx="3" ry="3" fill="#309C9F" opacity="0.2" stroke="#309C9F" />
    <text x="390" y="132" font-family="Arial, sans-serif" font-size="12" text-anchor="middle" fill="#333">Data Quality Mgmt</text>
    
    <rect x="470" y="115" width="150" height="25" rx="3" ry="3" fill="#309C9F" opacity="0.2" stroke="#309C9F" />
    <text x="545" y="132" font-family="Arial, sans-serif" font-size="12" text-anchor="middle" fill="#333">Data Standards & Metadata</text>
    
    <!-- Algorithm Layer -->
    <rect x="0" y="160" width="640" height="90" rx="5" ry="5" fill="#d1ecf1" stroke="#309C9F" stroke-width="1" />
    <text x="320" y="185" font-family="Arial, sans-serif" font-size="16" text-anchor="middle" fill="#333" font-weight="bold">Algorithm Layer</text>
    
    <rect x="20" y="195" width="140" height="45" rx="3" ry="3" fill="#309C9F" opacity="0.2" stroke="#309C9F" />
    <text x="90" y="215" font-family="Arial, sans-serif" font-size="12" text-anchor="middle" fill="#333">Loss Rate Calculation</text>
    <text x="90" y="230" font-family="Arial, sans-serif" font-size="10" text-anchor="middle" fill="#666">Absolute/Theoretical/Relative</text>
    
    <rect x="170" y="195" width="140" height="45" rx="3" ry="3" fill="#309C9F" opacity="0.2" stroke="#309C9F" />
    <text x="240" y="215" font-family="Arial, sans-serif" font-size="12" text-anchor="middle" fill="#333">Anomaly Detection</text>
    <text x="240" y="230" font-family="Arial, sans-serif" font-size="10" text-anchor="middle" fill="#666">Rule-based & ML Models</text>
    
    <rect x="320" y="195" width="140" height="45" rx="3" ry="3" fill="#309C9F" opacity="0.2" stroke="#309C9F" />
    <text x="390" y="215" font-family="Arial, sans-serif" font-size="12" text-anchor="middle" fill="#333">Diagnostic Engine</text>
    <text x="390" y="230" font-family="Arial, sans-serif" font-size="10" text-anchor="middle" fill="#666">Multidimensional Analysis</text>
    
    <rect x="470" y="195" width="150" height="45" rx="3" ry="3" fill="#309C9F" opacity="0.2" stroke="#309C9F" />
    <text x="545" y="215" font-family="Arial, sans-serif" font-size="12" text-anchor="middle" fill="#333">Treatment Recommendation</text>
    <text x="545" y="230" font-family="Arial, sans-serif" font-size="10" text-anchor="middle" fill="#666">Knowledge Graph & Rules</text>
    
    <!-- Application Layer -->
    <rect x="0" y="260" width="640" height="90" rx="5" ry="5" fill="#d1ecf1" stroke="#309C9F" stroke-width="1" />
    <text x="320" y="285" font-family="Arial, sans-serif" font-size="16" text-anchor="middle" fill="#333" font-weight="bold">Application Layer</text>
    
    <rect x="20" y="295" width="140" height="45" rx="3" ry="3" fill="#309C9F" opacity="0.3" stroke="#309C9F" />
    <text x="90" y="315" font-family="Arial, sans-serif" font-size="12" text-anchor="middle" fill="#333">Statistical Analysis</text>
    <text x="90" y="330" font-family="Arial, sans-serif" font-size="10" text-anchor="middle" fill="#666">Trend Analysis</text>
    
    <rect x="170" y="295" width="140" height="45" rx="3" ry="3" fill="#309C9F" opacity="0.3" stroke="#309C9F" />
    <text x="240" y="315" font-family="Arial, sans-serif" font-size="12" text-anchor="middle" fill="#333">Anomaly Monitoring</text>
    <text x="240" y="330" font-family="Arial, sans-serif" font-size="10" text-anchor="middle" fill="#666">Real-time Alert</text>
    
    <rect x="320" y="295" width="140" height="45" rx="3" ry="3" fill="#309C9F" opacity="0.3" stroke="#309C9F" />
    <text x="390" y="315" font-family="Arial, sans-serif" font-size="12" text-anchor="middle" fill="#333">Intelligent Diagnosis</text>
    <text x="390" y="330" font-family="Arial, sans-serif" font-size="10" text-anchor="middle" fill="#666">Root Cause Analysis</text>
    
    <rect x="470" y="295" width="150" height="45" rx="3" ry="3" fill="#309C9F" opacity="0.3" stroke="#309C9F" />
    <text x="545" y="315" font-family="Arial, sans-serif" font-size="12" text-anchor="middle" fill="#333">Treatment Suggestions</text>
    <text x="545" y="330" font-family="Arial, sans-serif" font-size="10" text-anchor="middle" fill="#666">Precision Treatment & Assessment</text>
    
    <!-- Service Layer -->
    <rect x="0" y="360" width="640" height="60" rx="5" ry="5" fill="#d1ecf1" stroke="#309C9F" stroke-width="1" />
    <text x="320" y="385" font-family="Arial, sans-serif" font-size="16" text-anchor="middle" fill="#333" font-weight="bold">Service Layer</text>
    
    <rect x="80" y="390" width="140" height="25" rx="3" ry="3" fill="#309C9F" opacity="0.4" stroke="#309C9F" />
    <text x="150" y="407" font-family="Arial, sans-serif" font-size="12" text-anchor="middle" fill="#333">Line Loss Management API</text>
    
    <rect x="250" y="390" width="140" height="25" rx="3" ry="3" fill="#309C9F" opacity="0.4" stroke="#309C9F" />
    <text x="320" y="407" font-family="Arial, sans-serif" font-size="12" text-anchor="middle" fill="#333">Work Order Integration</text>
    
    <rect x="420" y="390" width="140" height="25" rx="3" ry="3" fill="#309C9F" opacity="0.4" stroke="#309C9F" />
    <text x="490" y="407" font-family="Arial, sans-serif" font-size="12" text-anchor="middle" fill="#333">Mobile Application Service</text>
  </g>
</svg> 